<?xml version="1.0" encoding="UTF-8"?>
<svg id="Calque_1" data-name="Calque 1" xmlns="http://www.w3.org/2000/svg" viewBox="0 0 500 500">
  <defs>
    <style>
      .cls-1 {
        fill: #131313;
      }
    </style>
  </defs>
  <g id="Groupe_1156" data-name="Groupe 1156">
    <g>
      <path id="Tracé_1349" data-name="Tracé 1349" class="cls-1" d="m333.66,155.84c-7.23-24.13-11.43-49.07-12.5-74.24l-.85-16.67-12.18,11.43c-18.62,17.82-39.42,33.22-61.89,45.83l-10.3,5.66-11.37-20.59,10.31-5.69c34.09-19.84,64.34-45.65,89.3-76.19,4.21-4.93,11.63-5.52,16.56-1.31,2.79,2.38,4.31,5.94,4.1,9.6-3.07,38.79.77,77.82,11.35,115.27l3.44,11.26-22.49,6.88-3.47-11.25Z"/>
      <path class="cls-1" d="m335.79,155.19l2.81,9.12,18.24-5.58-2.79-9.13c-10.7-37.87-14.54-76.91-11.44-116.1.17-2.9-1.08-5.81-3.33-7.73-1.93-1.65-4.42-2.46-6.93-2.25-2.54.2-4.84,1.37-6.49,3.31-25.19,30.82-55.43,56.63-89.88,76.67l-8.4,4.64,9.21,16.69,8.35-4.59c22.28-12.5,42.96-27.81,61.43-45.49l15.7-14.73,1.1,21.47c1.07,24.98,5.24,49.77,12.41,73.7Z"/>
    </g>
    <g>
      <path id="Tracé_1350" data-name="Tracé 1350" class="cls-1" d="m165.77,478.65c-1.89.24-3.81,0-5.59-.67-4.7-1.78-7.75-6.35-7.6-11.38,2.3-39.37-2.57-78.84-14.36-116.48l-3.73-11.15,22.32-7.5,3.74,11.14c8.05,24.48,12.97,49.87,14.65,75.58l1.23,16.61,11.9-11.68c17.82-17.81,37.76-33.36,59.38-46.3l10.15-5.98,11.96,20.28-10.13,5.97c-33.1,20.5-62.32,46.69-86.29,77.37-1.9,2.34-4.63,3.84-7.62,4.21"/>
      <path class="cls-1" d="m137.3,340.36l3.03,9.04c11.93,38.07,16.79,77.53,14.47,117.31-.12,4.01,2.36,7.72,6.16,9.17,1.44.55,2.99.74,4.52.55h.01c2.43-.29,4.62-1.5,6.16-3.4,24.18-30.95,53.41-57.15,86.85-77.86l8.25-4.86-9.7-16.44-8.24,4.85c-21.43,12.82-41.26,28.29-58.94,45.96l-15.34,15.05-1.59-21.4c-1.67-25.53-6.56-50.77-14.54-75.05l-3.03-9.01-18.09,6.08Z"/>
    </g>
    <g>
      <path id="Tracé_1351" data-name="Tracé 1351" class="cls-1" d="m101.63,264.17c-20.29-33.83-46.54-63.71-77.47-88.19-3.85-3.25-5.22-8.58-3.42-13.28,1.44-4.02,5.01-6.9,9.24-7.45.7-.08,1.4-.11,2.09-.08,21.85,1.01,43.75.26,65.48-2.26,16.89-1.97,33.55-5.56,49.76-10.71l11.17-3.58,7.2,22.41-11.2,3.6c-17.68,5.6-35.85,9.52-54.26,11.7-6.45.79-13.06,1.42-19.81,1.87l-16.61,1.12,11.59,11.96c18.08,18.34,33.76,38.9,46.66,61.19l5.83,10.21-20.43,11.68-5.82-10.18Z"/>
      <path class="cls-1" d="m31.55,157.38c-.43,0-.87.03-1.3.08-3.4.44-6.25,2.74-7.41,5.99-1.48,3.86-.36,8.2,2.76,10.83,31.2,24.7,57.44,54.57,77.95,88.75l.02.04,4.71,8.25,16.57-9.47-4.73-8.27c-12.79-22.1-28.38-42.53-46.31-60.73l-14.94-15.42,21.4-1.44c6.7-.45,13.33-1.08,19.69-1.86,18.24-2.16,36.36-6.07,53.86-11.61l9.07-2.91-5.84-18.17-9.05,2.9c-16.31,5.18-33.2,8.81-50.18,10.8-21.79,2.52-43.94,3.28-65.84,2.27-.14,0-.29,0-.43,0Z"/>
    </g>
    <g>
      <path id="Tracé_1352" data-name="Tracé 1352" class="cls-1" d="m332.89,342.94l11.09-3.92c20.26-7.09,41.24-11.92,62.55-14.41,4.2-.52,8.48-.96,12.85-1.35l16.61-1.45-11.86-11.73c-18.07-17.57-33.9-37.31-47.14-58.76l-6.15-9.99,20.09-12.29,6.11,10.05c20.96,32.79,47.57,61.61,78.59,85.12,3.93,3.16,5.42,8.46,3.73,13.2-1.49,4.16-5.2,7.13-9.58,7.67-.55.07-1.1.09-1.65.08-19.52-.42-39.04.51-58.42,2.78-19.74,2.29-39.16,6.74-57.93,13.27l-11.09,3.92-7.79-22.19Z"/>
      <path class="cls-1" d="m335.72,344.3l6.31,17.99,8.98-3.17c18.9-6.58,38.55-11.08,58.42-13.38,19.42-2.27,39.18-3.21,58.73-2.8.45.02.9,0,1.34-.06,3.57-.44,6.54-2.81,7.75-6.2,1.37-3.85.16-8.16-3.03-10.72-31.28-23.7-57.9-52.54-79.07-85.66l-4.98-8.19-16.27,9.96,4.97,8.09c13.13,21.27,28.88,40.9,46.8,58.33l15.29,15.13-21.4,1.87c-4.59.41-8.77.85-12.77,1.34-21.13,2.47-42.02,7.28-62.09,14.3l-8.98,3.17Z"/>
    </g>
  </g>
</svg>