<?xml version="1.0" encoding="UTF-8"?>
<svg id="Calque_1" data-name="Calque 1" xmlns="http://www.w3.org/2000/svg" viewBox="0 0 500 500">
  <defs>
    <style>
      .cls-1 {
        fill: #131313;
      }
    </style>
  </defs>
  <g id="Groupe_1155" data-name="Groupe 1155">
    <g>
      <rect id="Rectangle_1490" data-name="Rectangle 1490" class="cls-1" x="401.71" y="57.32" width="65.33" height="20.68" transform="translate(77.95 324.99) rotate(-44.68)"/>
      <path class="cls-1" d="m406.65,83.29l11.79,11.92,43.67-43.19-11.79-11.92-43.67,43.19Z"/>
    </g>
    <path id="Tracé_1353" data-name="Tracé 1353" class="cls-1" d="m185.12,462.66c-39.8.06-77.96-15.81-105.98-44.07-58.02-57.25-58.77-150.67-1.68-208.85,27.25-27.3,64.27-42.57,102.84-42.42,15.73,0,31.36,2.51,46.3,7.44l3.95,1.29,44.28-44.25,39.75,39.79,52.31-51.74,14.54,14.69-52.23,51.65,36.77,36.77-44.23,44.26,1.3,3.97c25.62,75.92-15.15,158.23-91.07,183.85-15.09,5.09-30.92,7.67-46.85,7.62m-4.82-274.64c-33.08-.14-64.83,12.97-88.19,36.39-49.04,50.08-48.29,130.41,1.68,179.57,24.16,24.37,57.06,38.06,91.37,38.01,33.08.17,64.86-12.9,88.25-36.3,35.78-36.1,46.31-90.19,26.67-137.07l-2.61-6.36,39.26-39.28-61.89-61.94-39.29,39.27-6.34-2.58c-15.49-6.41-32.08-9.71-48.84-9.71"/>
    <g>
      <rect id="Rectangle_1491" data-name="Rectangle 1491" class="cls-1" x="350.06" y="45.96" width="20.7" height="30.85" transform="translate(-3.67 94.67) rotate(-14.89)"/>
      <path class="cls-1" d="m348.84,50.53l6.92,26.03,16.22-4.31-6.92-26.03-16.22,4.31Z"/>
    </g>
    <g>
      <rect id="Rectangle_1492" data-name="Rectangle 1492" class="cls-1" x="436.26" y="122.11" width="20.69" height="30.86" transform="translate(260.27 566.1) rotate(-83.62)"/>
      <path class="cls-1" d="m432.28,144.38l26.78,3,1.86-16.67-26.78-2.99-1.86,16.67Z"/>
    </g>
    <g>
      <path id="Tracé_1354" data-name="Tracé 1354" class="cls-1" d="m94.67,329.64c-1.51-31.38,11.34-61.75,34.92-82.52,18.51-16.71,42.5-26.05,67.44-26.27,4.71,0,9.42.36,14.08,1.08l-4.63,20.25c-3.07-.38-6.15-.58-9.24-.58-19.94.17-39.13,7.63-53.94,20.98-18.55,16.37-28.83,40.16-28.02,64.89l-20.6,2.16Z"/>
      <path class="cls-1" d="m92.81,331.8l-.1-2.07c-1.54-32.16,11.43-62.8,35.59-84.08,18.87-17.03,43.28-26.54,68.72-26.76h.04c4.81,0,9.63.37,14.36,1.1l2.08.32-5.5,24.03-1.76-.22c-2.96-.37-5.97-.56-8.95-.56h-.04c-19.47.16-38.16,7.43-52.63,20.48-18.19,16.05-28.17,39.14-27.38,63.37l.06,1.82-24.47,2.57Z"/>
    </g>
  </g>
</svg>