<?xml version="1.0" encoding="UTF-8"?>
<svg id="Calque_1" data-name="Calque 1" xmlns="http://www.w3.org/2000/svg" viewBox="0 0 500 500">
  <defs>
    <style>
      .cls-1 {
        fill: #131313;
      }
    </style>
  </defs>
  <path class="cls-1" d="m412.86,52.15c-16.64-8.8-35.32-13.45-54.02-13.45-43.06,0-82.3,23.62-102.4,61.63l-.75,1.39-1.6.25c-30.61,4.91-53.05,12.94-61.56,22.05-3.3,3.55-7.99,12.26-11.61,33.58l-.45,2.61-2.66.05c-59.16,1-66.06,10.35-68.33,13.42l-.54.73-.27,1.09c-2.61,12.91-4.05,26.06-4.27,39.06l-.18,3.01H25.5v243.75h232.2v-66.59l3.08-.11c37.34-1.29,49.77-5.42,53.86-7.77,9.08-5.2,13.54-22.26,14.02-53.67l.04-2.66,2.61-.43c22.72-3.75,40.26-10.71,49.39-19.6,8.3-8.09,14.22-29.71,17.01-41.88l.38-1.66,1.59-.62c45.38-17.95,74.74-61.06,74.8-109.81.77-43.86-22.84-83.85-61.62-104.36Zm-107.18,280.65l-.13,3.55c-.13,9.6-1.15,19.25-3.03,28.63l-.48,1.88-2.02.36c-15.84,2.83-61.98,4.31-99.38,4.31-3.22.05-6.44.08-9.66.08-20.29,0-40.82-1.08-61.01-3.21l-2.25-.38-.24-2.43c-3.2-31.57-3.08-147.58.18-174.82l.26-2.15,1.95-.52c14.53-2.85,29.43-4.37,44.32-4.51l3.49-.12-.26,3.55c-2.09,27.6-1.78,55.57.94,83.17,2.88,23.49,7.91,36.34,16.29,41.68,20.46,13.15,57.31,21.32,96.17,21.32,3.53,0,7.25-.08,11.39-.25l3.45-.15Zm67.25-59.6l-1.46,4.77-.04.21c-1.12,5.65-3.49,11.11-6.81,15.72-12.64,11.91-47.88,16.14-74.22,16.14-35,0-65.72-6.24-82.19-16.7l-.51-.32-.34-.45c-12.27-16.41-11.26-132.97,1.31-152.08l.4-.53c1.63-1.71,8.01-6.27,31.98-11.83l4.89-1.13-1.02,4.89c-1.7,8.04-2.56,16.27-2.57,24.47-.4,64.37,51.66,117.18,116.05,117.73,3.45,0,6.75-.24,9.81-.5l4.7-.39Zm78.71-116.78v1.2c-.66,51.45-43.03,93.3-94.46,93.3h-1.23c-52.1-.67-93.95-43.59-93.29-95.69.65-51.44,43.03-93.3,94.46-93.3h1.25c51.7.4,93.54,42.78,93.27,94.49ZM48.31,438.09v-197.33h54.86l-.11,3.3c-2.35,67.9.34,127.87,6.27,139.51l.84,1.65,1.75.61c11.15,3.9,67.03,8.86,119.71,9.16l3.17.02v43.08H48.31Z"/>
</svg>