<?xml version="1.0" encoding="UTF-8"?>
<svg id="DBF" xmlns="http://www.w3.org/2000/svg" viewBox="0 0 801.66 380.5">
  <path d="m801.07,94.9c-.2-3.76-.95-7.5-1.52-11.23-.14-.88-.46-1.77-.89-2.55-4.32-7.82-7.25-16.3-11.38-24.21-.78-1.49-1.62-2.86-2.71-4.14-2.14-2.53-4.94-4.52-6.29-7.7-.36-.84-1.11-1.42-1.93-1.86-7.39-3.86-13.12-10.3-20.97-13.44-.38-.16-.7-.48-1.01-.83-.45-.31-.89-.62-1.34-.94-1.43-.58-2.83-1.24-4.34-1.58-1.01-.23-1.99-.57-2.87-1.11-4.05-2.46-8.75-3.62-12.72-6.26-5.68-3.78-12.83-4.5-18.32-8.74-.54-.42-1.43-.58-2.15-.57-5.97.07-11.58-1.9-17.2-3.39-8.18-2.16-16.6-3.12-24.74-5.43-1.15-.33-2.38-.38-3.59-.49-7.25-.66-14.47-.63-21.69.64-3.55.62-7.27.24-10.61,2.01-2.59,1.37-5.43,1.74-8.31,2.07-8.39.97-16.26,3.62-23.38,8.12-6.37,4.02-12.51,8.31-18.24,13.31-8.97,7.84-18.61,14.92-27.12,23.31-2.04,2.02-4.42,3.68-6.58,5.57-6.99,6.13-13.31,12.78-17.2,21.42-1.61,3.58-3.57,6.99-5.37,10.48-2.51,4.3-3.93,9.03-5.43,13.72t0,.02c-3.85,9.43-9.13,18.23-12.06,28.08-1.6,5.4-2.43,10.87-3.2,16.4l-.71,5.15-.67-.88c-2.34-3.07-5.58-5.31-9.24-6.52-1.1-.37-2.22-.81-3.37-1.55-.58-.38-.77-1.15-.45-1.78,3.27-6.45,4.6-13.53,7.25-20.16,1.85-4.62,4.56-9.39,4.62-14.12.09-6.6,2.5-12.88,1.49-19.67-.79-5.32-1.04-10.59-2.56-15.92-2.29-8.02-5.88-15.21-10.49-21.97-2.02-2.96-4.14-5.98-6.95-8.32-4.06-3.38-8.25-6.61-12.87-9.16-3.29-1.82-6.4-3.99-9.95-5.38-8.83-3.45-17.51-7.33-26.43-10.54-5.78-2.08-11.9-3.57-17.88-4.53-6.4-1.02-12.78-2.11-19.02-3.71-13.42-3.43-26.89-6.13-40.82-5.69-1.67.06-3.27.23-4.92.65-8.19,2.07-16.34,4.08-24.22,7.35-7.42,3.08-14.21,7.36-21.67,10.29-.67.27-1.19.92-1.8,1.36-3.74,2.7-6.98,6.2-11.76,7.27-1.34.3-2.39,1.29-3.29,2.34-1.81,2.09-4.13,3.52-6.32,5.14-5.46,4.05-10.6,8.39-14.75,13.93-6.65,8.86-13.61,17.45-21.27,25.51-2.88,3.02-3.99,7.67-7.02,10.88-2.23,8.26-7.04,15.57-8.47,24.19-.93,5.62-2.85,11.08-4.56,16.55-1.09,3.53-1.25,7.36-3.18,10.68-.56-.74-1.72-1.84-2.31-2.81-2.2-3.59-2.86-7.87-5.22-11.4-1.25-1.86-2.44-3.77-3.39-5.8-5.95-12.66-7.38-13.18-12.83-22.08-3.51-5.73-5.26-8.59-6.56-10.32-3.25-4.33-7.14-7.94-14.79-14.98-11.12-10.23-15.85-13.57-20.34-16.23-.02-.01-.03-.02-.05-.03-3.95-2.34-7.42-5.4-10.17-9.11-1.74-1.73-3.46-3.43-5.2-5.15-3.51-2.65-8.17-5.92-13.89-9.29-5.45-3.21-9.54-5.83-12.81-6.71-8.1-2.17-15.38-6.13-23-9.28-3.22-1.34-6.49-2.25-9.72-3.41-3.13-1.13-5.76-3.95-9.56-2.48-9.4-2.04-19.04-2.65-28.45-4.8-3.53-.8-7.32-2.12-11.13-.92-3.03.95-6.05,1.92-8.86,3.46-4.02,2.22-6.79,5.31-7.9,9.92-.49,2.02-1.02,4.06-1.86,6.04-2.92,6.94-6.64,13.59-8.13,21.11-.3,1.56-1.71,2.74-1.65,4.6.13,3.75.37,7.54-1.58,11.08-.52.94-.38,2.44-.11,3.58.45,1.85.26,3.68-.19,5.37-.84,3.13-.75,6.28-.82,9.45-.06,3.02.38,6.07-.29,9.06-.26,1.18-.62,2.29-.4,3.55,1.45,8.36.63,16.73-.01,25.11-.33,4.35-1.3,8.92-.63,13,1.11,6.79-1.04,13.22-.69,19.83.05.92-.71,2.01-1.35,2.82-1.52,1.93-1.55,3.93-.38,5.92.97,1.67.64,3.06-.14,4.68-1.54,3.21-2.22,6.55-.89,10.1.36.94.13,2.1.26,3.15.36,3.06-1.02,6.01-.83,8.97.47,7.67-1.82,15.3-.11,22.97.92,4.15.43,8.48,1.11,12.59,1.62,9.78.91,19.61.36,29.29-.4,7.02-.33,14.12-1.22,21.19-.99,7.87-.65,15.99,1.69,23.83,1.12,3.74,1.36,7.86,3.02,11.32,3.56,7.39,5.35,15.04,5.02,23.16-.18,4.43,1.35,8.67,1.01,13.08-.1,1.34.98,2.13,1.76,3.05,2.65,3.09,5.51,6.01,7.39,9.69.71,1.4,1.78,2.65,3.48,2.52,2.78-.2,4.96,1.18,7.25,2.3,4.55,2.23,8.97,4.74,13.89,6.08,2.03.55,5.23,1.78,7.09,2.76,2.28,1.19,4.62,2.3,7.29,2.68,2.47.36,5.14.56,7.02,2.7.76.85,1.9.84,2.97.84,1.36,0,2.67.09,4,.6,4.09,1.55,8.23,2.94,12.36,4.37,5.35,1.85,10.88,2.39,16.49,2.3,2.42-.05,4.67-1.12,7.16-.95,3.64.26,7.23-.58,10.73-1.31,9.21-1.93,17.83-5.62,26.38-9.45,7.19-3.22,13.63-7.69,20.13-12.1,8.27-5.6,15.83-12.02,23.18-18.74,2.69-2.47,4.65-5.6,7.26-8.08,4.44-4.25,7.35-9.57,10.85-14.47,4.85-6.8,8.19-14.48,11.95-21.9.56-1.12.84-2.49,2.1-3.21.65,1.49,1.58,2.82,1.81,4.26.94,5.85,4.22,10.52,7.26,15.35,1.84,2.92,4.25,5.51,5.21,8.99.29,1.04,1.36,2.09,2.34,2.68,2.67,1.58,4.73,3.81,6.73,6.05,3.23,3.62,7.34,6.19,10.91,9.38,3.69,3.31,8.63,5.31,12.06,9.2,2.13,2.44,5.19,3.61,7.63,5.62,7.22,5.93,14.35,12.07,22.94,15.89,6.05,2.69,11.79,6.07,18.37,7.67,6.73,1.64,13.34,3.66,20.25,4.61,7.89,1.08,15.82,1.08,23.38-.86,6.08-1.55,12.27-2.72,18.29-4.75,9.71-3.27,19.41-6.43,28.8-10.62,15.16-6.78,28.59-16.36,41.88-25.99,8.07-5.85,15.86-12.31,22.81-19.62,4.17-4.39,8.78-8.35,10.97-14.27.46-1.25,1.43-2.31,2.2-3.43,4.85-6.99,8.62-14.57,12.35-22.18.99-2.02,1.27-4.37,3.01-6.04,1.46-1.41,2.11-3.18,2.37-5.25.41-3.26,2.38-5.87,4.13-9.55,1.6,8.66,3.35,16.3,3.08,24.2-.08,2.45.25,4.73,1.3,7.05,1.48,3.28,2.17,6.83,1.64,10.49-.24,1.68.51,2.88,1.67,3.96,1.01.57.64,2.04,1.59,2.65.12.08.21.19.22.33.29,2.62.56,5.24.85,7.86.25,2.36.53,4.71.88,7.06.16,1.06.29,2.13.43,3.2.25,1.91.54,3.81,1.11,5.64.46,1.5,1.1,2.95,2.07,4.31.47,2.85,2.24,5.31,2.35,8.28.03.96.79,1.59,1.63,2.04,4.1,2.17,7.09,5.59,10.14,8.95,1.45,1.6,3.19,2.79,5.14,3.65,7.05,3.14,14.28,5.93,21.12,9.46,5.25,2.7,10.76,4.81,16.15,7.05,8.51,3.54,17.55,5.74,27.01,5.02,4.37-.33,8.78.14,13.15-.69,7.19-1.36,14.05-3.45,20.37-7.38,8.35-5.19,16.95-10,25.45-14.96,3.29-1.93,6.32-4.21,8.84-7.08,8.05-9.17,14.6-19.22,19.18-30.66,3.28-8.21,3.48-16.79,4.79-25.27,1.24-7.99.2-15.66-2.03-23.29-.35-1.16-.78-2.31-1-3.49-.44-2.27-.04-2.74,2.31-2.45,2.85.36,5.72.55,8.58.85,8.2.88,15.99-1.37,23.69-3.35,6.33-1.62,12.41-4.38,18.04-8.04,3.36-2.19,7.13-3.92,10.62-5.91,9.21-5.25,18.03-11.11,22-21.89,4.24-11.52,6.42-23.26,5.49-35.54-.1-1.4-.45-2.67-1.02-3.92-1.09-2.34-1.98-4.77-2.36-7.33-.09-.64-.23-1.25-.43-1.83h0c-.18-.42-.38-.83-.58-1.23-.28-.48-.63-.93-1.08-1.35-.55-.51-1.17-1.09-1.4-1.76-2.6-7.6-7.99-13.2-13.31-18.86-.19-.2-.2-.56-.35-1.01,13.22-3.26,22.03-12.03,28.74-23.31,2.01-3.38,3.88-6.82,5.41-10.48,3.2-7.65,1.94-15.49,1.53-23.29ZM216.16,221.01c-.35,5.85-1.72,11.63-2.71,17.43-.96,5.66-1.9,11.31-2.82,16.97-1.24,7.57-3.33,14.97-6.35,22.09-2.84,6.68-5.65,13.38-9.12,19.75-3.7,6.78-8.45,12.9-13.59,18.66-4.35,4.87-9.36,9.11-14.42,13.16-4.44,3.56-9.6,6.25-14.52,9.2-5.45,3.26-11.41,5.38-17.23,7.86-4.35,1.85-8.63,2.42-13.08,2.95-1.81.22-3.66.35-5.43-.12-5.91-1.58-12.04-1.43-18.02-1.73-6.31-.31-12.22-1.56-18.08-3.57-3.01-1.03-5.96-2.18-9.22-2.17-1.21,0-2.44-.32-3.4-1.12-4.19-3.51-9.4-5.42-13.66-8.81-.83-.65-1.86-1.2-2.16-2.27-1.4-5.1-4.85-9.42-5.51-14.81-.22-1.79-.73-3.54-1.89-5.05-.43-.57-.81-1.38-.8-2.07.06-4.04-1.83-7.65-2.47-11.47-1.25-7.45-2.9-14.84-3.33-22.45-.35-6.27.6-12.41,1.28-18.55,1.26-11.55.7-22.98-.64-34.45-1.16-9.9-2.61-19.76-2.56-29.8.03-5.68-.35-11.42-2.39-16.97-1-2.72-1.22-5.94-.72-8.96.78-4.67.48-9.33.42-14.02-.05-4.09-.71-8.51,2.2-12.21.6-.77,1.01-1.94.74-3.02-.94-3.79.15-7.55.02-11.32-.24-7.03-1.09-14.08-.7-21.07.45-8.12-.73-16.35,1.32-24.38.5-1.95.28-3.91.31-5.88.11-8.75-.56-17.54,1.7-26.17.37-1.42.33-3.05.1-4.52-.57-3.68,1.85-6.66,2.13-10.12.07-.85.88-1.17,1.55-1.52,5.16-2.7,10.6-3.14,16.2-1.95,1.2.26,2.37.49,3.58.47,1.99-.03,3.94,0,5.66,1.26.46.34,1.1.48,1.69.6,10.91,2.33,21.53,5.74,32.09,9.24,6.85,2.27,13.73,4.68,20.04,8.35,1.17.68,2.41,1.24,3.62,1.84,3.23,1.58,6.44,3.16,9,5.92,3.32,3.56,7.9,5.56,11.71,8.56,2.15,1.7,4.22,3.44,6.09,5.43.73.78,1.33,1.86,2.23,2.24,4.94,2.1,6.7,7.04,9.91,10.67,6.47,7.34,11.71,15.65,18.51,22.76,3.82,4,6.65,8.97,9.73,13.63,4.79,7.26,7.47,15.46,10.12,23.65,1.26,3.92,3.24,7.44,5.15,11.06,2.18,4.14,4.04,8.46,5.43,13.11,3.01,9.99,2.58,20,2.41,30.09,0,7.87.35,15.76-.12,23.6Zm218.96-43.76c.24.35,7.94-2.87,12.52-5.91.78-.51,2.1-1.45,4.07-1.83,1.6-.31,1.83.14,3.55-.29,1.69-.42,2.08-.9,4.11-1.44.85-.23,1.67-.39,2.64-.55.81-.14,12.9-2.44,22.11-.73,4.1.76,10.58,2.04,14.47,7.26,1.27,1.7,2.25,3.75,2.82,6.2.9,3.87,1.56,7.57,1.54,11.49-.02,2.4-.3,4.82.78,7.14.59,1.26.54,2.81-.05,4.01-1.48,3.03-2.09,6.31-3.03,9.48-1.91,6.39-4.39,12.5-8.3,17.9-1.69,2.33-1.32,5.18-2.59,7.64-.95,1.84-1.54,3.8-2.95,5.47-3.58,4.26-5.42,9.5-7.92,14.38-2.05,4.02-4.97,7.58-7.18,11.53-3.02,5.41-7.95,9.51-10.33,15.34-.38.92-1.38,1.59-2.08,2.39-3.8,4.31-8.31,7.97-11.75,12.62-.99,1.34-2.39,2.28-3.81,3.19-7.99,5.11-16.09,10.06-23.85,15.5-10.17,7.12-21.06,12.73-32.51,17.45-7.67,3.17-15.55,5.47-23.66,7.1-2.81.56-5.59,1.31-8.35,2.1-8.99,2.57-18.19,2.46-27.41,2.19-1.86-.06-3.57-.74-5.24-1.36-5.93-2.2-11.97-4.21-17.61-7-5.25-2.59-10.14-5.93-15.01-9.22-8.5-5.73-17.06-11.41-25.2-17.62-4.5-3.43-8.43-7.52-11.64-12.5-2.39-3.7-4.33-7.47-6.24-11.37-2.24-4.59-2.89-9.56-3.62-14.44-.5-3.28-.9-6.52-1.97-9.68-2.34-6.91-3.15-14.17-4.55-21.28-.8-4.05-.51-8.44.78-12.55.36-1.16.67-2.3.76-3.53,1.33-17.67,5.06-35.01,7.49-52.53.57-4.03,1.42-8.02,1.99-12.07.51-3.66,2.31-7.12,3.43-10.71,2.84-9.09,5.28-18.29,8.41-27.29.8-2.3,2.02-4.37,2.89-6.56,1.26-3.18,2.69-6.32,3.54-9.73.83-3.37,1.42-7.2,4.98-9.31.58-.34,1.15-1.17,1.24-1.84.73-5.44,4.91-8.52,8.27-12.11,6.2-6.63,11.79-13.77,18.19-20.23,4.28-4.31,8.98-8.04,13.54-11.96,4.92-4.23,9.96-8.35,14.81-12.63,5.48-4.84,11.66-7.95,18.43-10.28,6.72-2.31,13.65-2.27,20.6-2.24,1.67,0,3.33.11,5,.13,6.95.07,13.81.24,20.7,1.86,6.84,1.6,14.09,1.76,20.72,4.08,7.41,2.6,14.9,4.97,22.44,7,5.22,1.41,10.37,3.16,15.41,4.9,8.14,2.82,16.83,5.16,22.95,12.06,3.44,3.88,5.97,8.27,7.7,13.14.81,2.26,1.2,4.69,2.84,6.62.83.96,1.12,2.37.64,3.45-1.04,2.31-.24,4.51.17,6.65,1.94,10.1.79,19.78-1.77,31.76-3.25,15.25-11.25,25.63-15.88,31.65-8.12,10.55-17.09,15.48-19.76,18.32-2.15,2.29-2.81,1.6-4.68,3.1-.66.53-.83.79-1.8,1.48-.6.43-1.07.7-1.26.81-1.94,1.14-4.61,3.3-4.53,3.4Zm208.58,30.07c.31.31.58.5.63.55.47.36,1.18,1.05,2.23,2.46.46.76,1.17,1.1,2.01,1.6,1.45.86,3.09,2.61,3.43,3.86,1.34,3.66,4.69,5.88,6.57,9.18,5.62,9.87,8.69,20.57,10.12,31.73,1.45,11.29,1.98,22.63-1.89,33.63-2.47,7-4.88,14-6.84,21.15-.6,2.19-1.18,4.34-1.22,6.66-.06,2.95-1.18,5.68-2.92,8-5.03,6.73-10.95,12.21-18.67,16.15-9.3,4.75-19.01,7.68-29.11,9.71-1.03.21-2.11.15-3.17.17-12.42.18-23.35-3.99-33.13-11.45-1.23-.93-2.26-2.02-3.08-3.31-.74-1.17-1.63-2.21-2.8-2.94-4.44-2.78-6.41-6.99-8.21-11.81-1.8-4.81-2.02-9.52-2.33-14.46-.93-14.5-2.76-28.89-6.62-42.96-1.75-6.42-2.87-12.95-2.46-19.68.17-2.84-.73-5.65-.89-8.52-.2-3.64-.38-7.27-.23-10.91.14-3.17.3-6.32-.78-9.41-.56-1.6-.25-3.31-.03-4.96.56-4.13.44-8.16-1.45-11.99-.92-1.87-.5-3.88-.4-5.82.13-2.74-.37-5.33-.86-8.02-1.51-8.19-2.87-16.47.39-24.63.49-1.24.91-2.56.65-3.99-.14-.72-.15-1.57.1-2.24,2.75-7.26,3.42-14.95,4.87-22.49.47-2.42,2.2-4.59,3.28-6.91,3.62-7.74,5.19-16.11,7.29-24.3,1.54-6.04,3.9-11.75,6.53-17.35,3.71-7.88,9.85-13.75,16.51-19.09,4.24-3.4,9.16-5.9,13.48-9.1,7.05-5.22,14.75-9.56,21.29-15.41,4.06-3.63,8.77-5.81,13.54-8.1,7.91-3.81,16.49-5.67,24.63-8.82,1.28-.5,2.58-.81,3.97-.86,8.62-.36,17.17-.1,25.77,1.16,5.81.86,11.52,2.44,17.46,2.55,3.85.08,7.25,2.16,10.63,3.63,3.99,1.73,8.06,3.51,12.08,5.05,7.99,3.06,14.99,7.8,22.5,11.65.52.27,1.06.66,1.4,1.13,2.89,4.14,6.71,7.34,10.49,10.6,3.95,3.39,6.29,8.11,9.54,12.07,3.87,4.73,6.02,10.48,9.65,15.32,1.07,1.43,1.12,3.16,1.35,4.75.98,6.61,1.36,13.04-2.25,19.3-5.19,9.03-12.02,16.34-21.14,21.24-4.88,2.62-10.22,4.37-15.94,4.56-4.7.16-9.38.35-14.07,0-1.66-.13-3.29.05-4.93.54-2.36.7-5.18,1.03-7.16.07-3.73-1.8-6.87-.47-10.39.19-6.06,1.13-12.05,3-18.32,2.76-.26-.01-.5,0-.73.04-.51.08-.87.26-.94.29-1.52.71-.38,2.25-5.25,1.71-1.34-.15-4.59.41-5.93.48-2.27.13-4.41-.39-9.47-.8-.57-.05-1.44-.16-2.31-.76-.01,0,0,0-.01,0-2.04-1.42-3.63-2.13-4-2.35-2.7-1.62-6.65-1.62-11.46-1.62-.96,0-2.4.2-4.75-.5-.46-.14-1.09-.29-1.68-.32-2.57-.12-4.9.4-4.9.67,0,.21,2.88.82,4.74.89,1.37.05,1.8.09,3.18.43.56.14,1.27.32,1.42.36,1.85.48,1.96.63,4.19.95,1.47.21,2.22.5,2.74.79.78.44,1.71.52,2.56.77,2.95.89,3.38-.71,6.4,2.64,1.55,1.72,4.63,1.58,6.92,1.55,3.11-.04,1.81,1.12,4.96,1.52,3.38.43,4.73.88,8.23,1.34.97.13,1.85.18,2,.19.84.03,1.61-.03,4.17-.06,6.67-.09,13.22.52,19.5,3.01,1.96.78,3.99,1.28,6.12,1.58,3.19.47,6,2.03,8.39,4.2,1.14,1.03,2.29,2.05,3.71,2.56,5.24,1.87,8.94,6.07,13.55,8.81,4.91,2.92,8.87,7.28,14.38,9.25,1.67.6,2.82,1.67,2.62,3.73-.22,2.26.93,4.13,2.19,5.83,2.94,3.96,3.65,8.92,6.03,13.12.53.94.35,2.09.12,3.13-1.21,5.47-2.94,10.58-8.93,12.67-1.35.47-2.3,1.42-3.24,2.42-4.37,4.64-10.28,7.17-15.84,9.4-7.04,2.81-14.55,4.72-22.22,5.9-11.36,1.76-22.06.78-32.81-3.5-7.66-3.05-14.4-7.47-21.27-11.76-1.26-.79-2.25-2-3.36-3.02-1.49-1.67-2.97-3.2-5.18-4.13-1.49-.63-1.44-1.57-2.66-2.55-1.44-1.15-3.13-2.1-3.23-1.98-.08.1.56.85.94,1.22Z"/>
  <path d="m402.59,79.91c-1.51-3.8-4.62-7.05-7.35-10.26-3.97-4.67-9.4-6.81-15.36-7.6-1.79-.24-3.64-.16-5.26.96-1.04.72-2.26.97-3.47.81-3.89-.52-7.1,1.21-10.18,3.13-2.29,1.43-4.41,3.17-6.51,4.9-4.69,3.85-9.33,7.92-12.93,12.71-3.02,4.01-6.37,7.62-9.74,11.26-1.15,1.24-2.25,2.58-2.5,4.24-.26,1.76-1.19,3.08-2.1,4.46-1.66,2.54-3.28,5.13-3.99,8.09-1.32,5.5-4.77,10.46-4.12,16.47.09.82-.41,1.74-.74,2.57-1.41,3.56-2.01,7.25-1.93,11.08.04,2.11-.47,4.23-.55,6.29-.17,4.54-1.51,8.95-1.2,13.86-.83,5.84,2.6,10.99,4.21,16.59.29,1.02,1.26,1.76,2.23,2.19,2.71,1.2,5.13,3.24,8.44,2.82,1.36-.17,2.61.5,3.77,1.34,2.33,1.69,5.19,2.22,7.77,1.63,7.05-1.6,13.87-4.13,19.17-9.22,5.33-5.13,11.25-9.56,16.35-14.96,6.05-6.39,12.24-12.62,15.72-20.89,1.63-3.86,3.34-7.67,4.58-11.73,1.72-5.61,4.52-10.89,6.27-16.49,1.6-5.14,5.33-9.85,3.78-15.76,2.1-6.97-2.02-12.63-4.35-18.49Zm-22.46,16.27c-.06.7-.48,1.43-.89,2.04-5.61,8.35-10.5,17.13-15.21,26-2.55,4.8-5.78,9.15-8.84,13.61-.43.62-1.11,1.13-1.36,1.8-1.25,3.41-3.84,5.21-7.66,6.4-.51-2.22.36-3.96.83-5.59,1.74-6.07,3.06-12.27,6.22-17.89,1.84-3.27,2.7-7.08,4.9-10.16,3.83-5.39,6.7-11.49,11.69-16.03.69-.63,1.23-1.4,1.27-2.34.24-4.82,4.19-7.98,5.46-12.34.3-1.03,1.25-1.87,2.42-1.65,1.09.2.89,1.39,1.16,2.23,1.53,4.64.4,9.29.02,13.92Z"/>
  <path d="m431.29,232.37c-.65-3.38-.93-6.91-3.22-9.8-.33-.41-.38-1.19-.3-1.76.34-2.24-.74-4.07-1.42-6.07-1.2-3.5-3.3-6.31-5.55-9.15-4.77-6.02-10.71-9.46-18.36-7.68-5.33,1.25-10.26,2.9-14.46,6.94-4.68,4.5-10,8.37-13.45,14-1.6,2.6-3.24,5.07-5.57,7.07-.8.68-1.59,1.47-2.11,2.37-3.09,5.41-7.43,9.85-11.22,14.72-1.6,2.06-3.17,4.13-3.91,6.58-1.65,5.45-4.72,10.45-4.93,16.35-.21,6.12-1.42,12.24-.1,18.37.73,3.39,1.77,6.72,1.69,10.24-.04,1.87.96,3.13,2.33,4.18.95.74,1.97,1.39,2.9,2.16,4.93,4.04,10.63,6.35,16.95,6.44,10.96.16,20.2-4.17,28.03-11.68,1.86-1.78,3.83-3.42,5.76-5.11,2.53-2.21,5.87-3.39,7.94-5.95,2.21-2.72,4.73-5.11,6.99-7.74,2.06-2.4,5.13-4.74,5.65-7.5.92-4.88,3.77-8.68,5.41-13.08,1.69-4.53,1.07-9.27,1.06-13.95-.06-3.33.49-6.68-.14-9.98Zm-21.23-11.55c-.94,6.46.67,13.28-2.82,19.38-1.27,2.21-2.07,4.64-2.93,7.06-1.47,4.15-4.82,7.23-7.38,10.76-.97,1.34-2.16,2.46-2.55,4.2-.26,1.16-1.02,2.06-2.15,2.76-2.74,1.68-4.98,4.09-6.73,6.66-2.5,3.65-5.42,6.75-8.8,9.52-1.02.84-1.77,2.39-3.35,1.71-1.35-.59-.7-2.12-.89-3.24-.1-.59-.02-1.21-.02-2.67-.17-1.91.12-4.57,1.82-6.9.65-.89.8-1.93.98-2.98.95-5.79,3.38-10.86,7.21-15.32,1.47-1.71,2.54-3.77,2.77-6.1.15-1.55.62-2.97,1.55-4.18,4.88-6.33,9.74-12.67,15.84-17.91,1.6-1.37,3.25-2.71,5.02-3.85,1.13-.73,2.71-.75,2.44,1.12Z"/>
  <path d="m168.61,199.35c-.8-2.49-.94-5.23-1.08-8.14-.07-1.46-.15-2.98-.31-4.52-1.09-9.93-2.91-17.34-5.91-24.01-.75-1.68-1.54-3.34-2.33-5-2.43-5.15-4.73-10.01-6.05-15.23-.38-1.51-1.01-3.44-2.57-5.06-2.25-2.31-3.36-5.47-4.39-8.76l-.1-.32c-.57-1.87-1.28-4.2-3.36-6.2-1.06-1.02-2.08-2.11-3.16-3.27-.99-1.07-2.02-2.18-3.11-3.25-7.39-7.22-15.09-11.82-23.54-14.07-5.95-1.58-11.12-.55-15.8,3.15-.57.46-1.17.88-1.77,1.31-3.03,2.16-7.14,5.09-7.55,11.04-.05.07-.11.16-.2.27-3.5,4.71-3.68,9.9-3.39,14.35.03.47.08.94.14,1.41.07.57.17,1.35.09,1.6-1.46,4.49-1.28,9.02-1.14,12.65.15,3.95-.2,7.87-.57,12.01-.2,2.32-.42,4.72-.54,7.12l-.07,1.47c-.14,2.98-.28,6.06-.75,8.92-1.07,6.56-2.11,14.31-1.7,22.09-.22,4.6.3,8.98.8,13.23.33,2.86.65,5.57.74,8.28.16,4.63,1.27,8.86,2.33,12.95.78,2.99,1.52,5.82,1.86,8.63.14,1.27.73,2.52,1.76,3.75,5.24,6.16,11.75,12.11,21.04,12.11,2.02,0,4.18-.28,6.48-.91.29-.07.66-.09.93-.04,4.78.9,9.08-.3,12.88-1.35l1.24-.34c5.54-1.51,9.92-4.58,14.16-7.55.86-.6,1.72-1.19,2.58-1.77,5.63-3.8,10.6-9.29,14.77-16.33,3.52-5.94,4.72-12.25,5.88-18.35.55-2.86,1.06-5.56,1.81-8.24.32-1.18.28-2.49-.1-3.63Zm-41.57-57.53c.06.13.12.26.18.39,2.84,6.41,4.63,13.03,5.99,18.66,1.51,6.28,3.24,11.85,5.29,17.01,2.37,5.92,3.26,11.93,2.83,18.89l-.03.48.08.47c.62,3.44-.21,7.32-1.09,11.44-.38,1.77-.78,3.6-1.07,5.48-.38,2.38-1.93,4.77-4.16,6.4-5.46,4.01-10.4,5.75-15.53,5.47-1.1-.06-1.86-.35-2.71-1.01-3.88-3.03-6.41-7.32-7.97-13.47-.7-2.8-1.23-5.62-1.8-8.6-.23-1.22-.46-2.45-.71-3.68l-.09-.44c-.06-.26-.14-.66-.15-.74.73-10.6-.31-21.11-1.32-31.28-.2-2.01-.4-4.03-.59-6.05-.64-6.84-1.05-12.96.32-18.62,2.01-8.28,1.21-8.26.71-10.47-.32-1.43-1.27-4.68.07-5.7.2-.15.4-.21.49-.24,2.73-.81,9.84,4.11,10.18,4.32,2.32,1.42,2.98,2.31,5.01,3.67,2.57,1.73,4.13,4.02,5.06,5.82.15.29.32.58.49.86s.35.6.52.94Z"/>
</svg>