<?xml version="1.0" encoding="UTF-8"?>
<svg id="Calque_1" data-name="Calque 1" xmlns="http://www.w3.org/2000/svg" viewBox="0 0 500 500">
  <defs>
    <style>
      .cls-1 {
        fill: #fffcf1;
      }

      .cls-2 {
        fill: #131313;
      }
    </style>
  </defs>
  <path id="Tracé_1360" data-name="Tracé 1360" class="cls-2" d="m305.3,15.36l-32.94,23.32-27.36-29.69-26.11,30.78-33.89-21.95-17.62,36.3-38.28-12.83-8.05,39.55-40.26-2.92,2.04,40.31-39.72,7.19,12,38.54-36.69,16.84,21.2,34.34-31.34,25.44,29.08,27.99-24.04,32.44,35.13,19.88-15.21,37.39,38.98,10.52-5.44,40,40.35.49,4.69,40.09,39.22-9.55,14.5,37.67,35.61-18.99,23.42,32.88,29.76-27.27,30.85,26.02,22.05-33.81,36.36,17.53,12.94-38.23,39.58,7.94,3.04-40.26,40.3-2.15-7.07-39.74,38.5-12.11-16.73-36.74,34.28-21.3-25.34-31.42,27.91-29.16-32.36-24.13,19.78-35.19-37.34-15.32,10.41-39-39.98-5.57.37-40.37-40.1,4.56-9.67-39.18-37.71,14.39-19.11-35.55Z"/>
  <g>
    <path class="cls-1" d="m107.1,194.09c2.63,0,4.87.38,6.71,1.15s3.35,1.78,4.51,3.03c1.16,1.26,2,2.69,2.53,4.3s.79,3.28.79,5.01-.26,3.35-.79,4.98-1.37,3.07-2.53,4.33c-1.16,1.26-2.66,2.27-4.51,3.03-1.85.77-4.08,1.15-6.71,1.15h-9.72v15.07h-9.25v-42.04h18.96Zm-2.53,19.78c1.06,0,2.08-.08,3.06-.23.98-.16,1.84-.46,2.59-.91.74-.45,1.34-1.09,1.79-1.91.45-.82.68-1.9.68-3.24s-.23-2.41-.68-3.24c-.45-.82-1.05-1.46-1.79-1.91-.75-.45-1.61-.75-2.59-.91-.98-.16-2-.24-3.06-.24h-7.18v12.6h7.18Z"/>
    <path class="cls-1" d="m134.48,205.69v5.65h.12c.39-.94.92-1.81,1.59-2.62s1.43-1.49,2.3-2.06,1.79-1.01,2.77-1.32c.98-.31,2-.47,3.06-.47.55,0,1.16.1,1.82.29v7.77c-.39-.08-.86-.15-1.41-.2-.55-.06-1.08-.09-1.59-.09-1.53,0-2.83.26-3.89.76-1.06.51-1.91,1.21-2.56,2.09-.65.88-1.11,1.91-1.38,3.09-.28,1.18-.41,2.45-.41,3.83v13.72h-8.36v-30.44h7.95Z"/>
    <path class="cls-1" d="m158.39,228.83c1.26,1.22,3.06,1.82,5.42,1.82,1.69,0,3.14-.42,4.36-1.26s1.96-1.74,2.24-2.68h7.36c-1.18,3.65-2.98,6.26-5.42,7.83s-5.38,2.35-8.83,2.35c-2.39,0-4.55-.38-6.48-1.15-1.92-.76-3.55-1.85-4.89-3.27-1.34-1.41-2.36-3.1-3.09-5.06-.73-1.96-1.09-4.12-1.09-6.48s.37-4.4,1.12-6.36c.75-1.96,1.8-3.66,3.18-5.09,1.37-1.43,3.01-2.56,4.92-3.39s4.01-1.24,6.33-1.24c2.59,0,4.85.5,6.77,1.5s3.5,2.35,4.74,4.03c1.24,1.69,2.13,3.61,2.68,5.77.55,2.16.75,4.42.59,6.77h-21.96c.12,2.71.8,4.67,2.06,5.89Zm9.45-16.02c-1-1.1-2.52-1.65-4.56-1.65-1.34,0-2.44.23-3.33.68-.88.45-1.59,1.01-2.12,1.68s-.9,1.37-1.12,2.12c-.22.75-.34,1.41-.38,2h13.6c-.39-2.12-1.09-3.73-2.09-4.83Zm-2.86-22.9l-6.24,10.42h5.83l9.6-10.42h-9.19Z"/>
    <path class="cls-1" d="m180.05,211.29v-5.59h5.01v-2.36c0-2.71.84-4.93,2.53-6.65s4.24-2.59,7.65-2.59c.75,0,1.49.03,2.24.09s1.47.11,2.18.15v6.24c-.98-.12-2-.18-3.06-.18-1.14,0-1.95.26-2.44.79-.49.53-.74,1.42-.74,2.68v1.83h5.77v5.59h-5.77v24.85h-8.36v-24.85h-5.01Z"/>
    <path class="cls-1" d="m202.49,215.06c.12-1.96.61-3.59,1.47-4.89.86-1.3,1.96-2.34,3.3-3.12,1.33-.79,2.83-1.35,4.5-1.68,1.67-.33,3.35-.5,5.04-.5,1.53,0,3.08.11,4.65.32,1.57.22,3,.64,4.3,1.27,1.3.63,2.36,1.5,3.18,2.62.82,1.12,1.24,2.6,1.24,4.45v15.84c0,1.37.08,2.69.23,3.95s.43,2.2.82,2.83h-8.48c-.16-.47-.29-.95-.38-1.44-.1-.49-.17-.99-.21-1.5-1.33,1.37-2.91,2.34-4.71,2.89s-3.65.82-5.53.82c-1.45,0-2.81-.18-4.06-.53s-2.35-.9-3.3-1.65c-.94-.75-1.68-1.69-2.21-2.83-.53-1.14-.79-2.49-.79-4.06,0-1.73.3-3.15.91-4.27.61-1.12,1.39-2.01,2.35-2.68.96-.67,2.06-1.17,3.3-1.5s2.48-.6,3.74-.79,2.49-.35,3.71-.47c1.22-.12,2.3-.29,3.24-.53.94-.23,1.69-.58,2.24-1.03.55-.45.8-1.11.76-1.97,0-.9-.15-1.62-.44-2.15-.29-.53-.69-.94-1.18-1.24-.49-.29-1.06-.49-1.71-.59-.65-.1-1.35-.15-2.09-.15-1.65,0-2.94.35-3.89,1.06-.94.71-1.49,1.88-1.65,3.53h-8.36Zm19.31,6.18c-.35.31-.79.56-1.32.74s-1.1.32-1.71.44c-.61.12-1.25.22-1.91.29s-1.34.18-2,.29c-.63.12-1.25.28-1.85.47-.61.2-1.14.46-1.59.79-.45.33-.81.76-1.09,1.27-.27.51-.41,1.16-.41,1.94s.14,1.37.41,1.88c.28.51.65.91,1.12,1.21.47.29,1.02.5,1.65.62.63.12,1.28.18,1.94.18,1.65,0,2.92-.28,3.83-.82.9-.55,1.57-1.21,2-1.97.43-.76.7-1.54.79-2.33.1-.78.15-1.41.15-1.88v-3.12Z"/>
    <path class="cls-1" d="m251.18,211.17c-1.34,0-2.45.31-3.36.91-.9.61-1.64,1.39-2.21,2.36-.57.96-.97,2.02-1.21,3.18-.23,1.16-.35,2.31-.35,3.44s.12,2.22.35,3.36c.23,1.14.62,2.17,1.15,3.09s1.25,1.68,2.15,2.27c.9.59,2,.88,3.3.88,2,0,3.54-.56,4.62-1.68,1.08-1.12,1.76-2.62,2.03-4.5h8.07c-.55,4.04-2.12,7.12-4.71,9.24s-5.91,3.18-9.95,3.18c-2.28,0-4.37-.38-6.27-1.15-1.91-.76-3.52-1.83-4.86-3.21-1.34-1.37-2.38-3.01-3.12-4.92s-1.12-3.99-1.12-6.27.34-4.54,1.03-6.56,1.7-3.77,3.03-5.24c1.34-1.47,2.96-2.62,4.89-3.44s4.12-1.24,6.59-1.24c1.8,0,3.54.23,5.21.71,1.67.47,3.16,1.19,4.48,2.15,1.31.96,2.38,2.16,3.21,3.59.82,1.43,1.29,3.13,1.41,5.09h-8.18c-.55-3.49-2.61-5.24-6.18-5.24Z"/>
    <path class="cls-1" d="m279.39,228.83c1.26,1.22,3.06,1.82,5.42,1.82,1.69,0,3.14-.42,4.36-1.26s1.96-1.74,2.24-2.68h7.36c-1.18,3.65-2.98,6.26-5.42,7.83s-5.38,2.35-8.83,2.35c-2.39,0-4.55-.38-6.48-1.15-1.92-.76-3.55-1.85-4.89-3.27-1.34-1.41-2.36-3.1-3.09-5.06-.73-1.96-1.09-4.12-1.09-6.48s.37-4.4,1.12-6.36c.75-1.96,1.8-3.66,3.18-5.09,1.37-1.43,3.01-2.56,4.92-3.39s4.01-1.24,6.33-1.24c2.59,0,4.85.5,6.77,1.5s3.5,2.35,4.74,4.03c1.24,1.69,2.13,3.61,2.68,5.77.55,2.16.75,4.42.59,6.77h-21.96c.12,2.71.8,4.67,2.06,5.89Zm9.45-16.02c-1-1.1-2.52-1.65-4.56-1.65-1.34,0-2.44.23-3.33.68-.88.45-1.59,1.01-2.12,1.68s-.9,1.37-1.12,2.12c-.22.75-.34,1.41-.38,2h13.6c-.39-2.12-1.09-3.73-2.09-4.83Z"/>
    <path class="cls-1" d="m328.55,205.69v3.89h.12c1.02-1.65,2.32-2.85,3.89-3.59,1.57-.75,3.3-1.12,5.18-1.12,2.39,0,4.45.45,6.18,1.35,1.73.9,3.16,2.1,4.3,3.59,1.14,1.49,1.98,3.23,2.53,5.21.55,1.98.82,4.05.82,6.21,0,2.04-.28,4-.82,5.89-.55,1.88-1.38,3.55-2.5,5.01s-2.51,2.61-4.18,3.47c-1.67.86-3.62,1.29-5.86,1.29-1.88,0-3.62-.38-5.21-1.15-1.59-.76-2.89-1.89-3.92-3.39h-.12v14.43h-8.36v-41.1h7.95Zm10.86,24.14c.92-.55,1.67-1.27,2.24-2.15s.97-1.91,1.21-3.09c.24-1.18.35-2.38.35-3.59s-.13-2.41-.38-3.59c-.26-1.18-.68-2.23-1.27-3.15s-1.35-1.67-2.27-2.24-2.05-.85-3.39-.85-2.52.29-3.44.85-1.67,1.31-2.24,2.21-.97,1.94-1.21,3.12c-.24,1.18-.35,2.39-.35,3.65s.13,2.41.38,3.59c.26,1.18.67,2.21,1.24,3.09.57.88,1.32,1.6,2.27,2.15.94.55,2.08.82,3.42.82s2.52-.27,3.44-.82Z"/>
    <path class="cls-1" d="m356.22,215.06c.12-1.96.61-3.59,1.47-4.89.86-1.3,1.96-2.34,3.3-3.12,1.33-.79,2.83-1.35,4.5-1.68,1.67-.33,3.35-.5,5.04-.5,1.53,0,3.08.11,4.65.32,1.57.22,3,.64,4.3,1.27,1.3.63,2.36,1.5,3.18,2.62.82,1.12,1.24,2.6,1.24,4.45v15.84c0,1.37.08,2.69.23,3.95s.43,2.2.82,2.83h-8.48c-.16-.47-.29-.95-.38-1.44-.1-.49-.17-.99-.21-1.5-1.33,1.37-2.91,2.34-4.71,2.89s-3.65.82-5.53.82c-1.45,0-2.81-.18-4.06-.53s-2.35-.9-3.3-1.65c-.94-.75-1.68-1.69-2.21-2.83-.53-1.14-.79-2.49-.79-4.06,0-1.73.3-3.15.91-4.27.61-1.12,1.39-2.01,2.35-2.68.96-.67,2.06-1.17,3.3-1.5s2.48-.6,3.74-.79,2.49-.35,3.71-.47c1.22-.12,2.3-.29,3.24-.53.94-.23,1.69-.58,2.24-1.03.55-.45.8-1.11.76-1.97,0-.9-.15-1.62-.44-2.15-.29-.53-.69-.94-1.18-1.24-.49-.29-1.06-.49-1.71-.59-.65-.1-1.35-.15-2.09-.15-1.65,0-2.94.35-3.89,1.06-.94.71-1.49,1.88-1.65,3.53h-8.36Zm19.31,6.18c-.35.31-.79.56-1.32.74s-1.1.32-1.71.44c-.61.12-1.25.22-1.91.29s-1.34.18-2,.29c-.63.12-1.25.28-1.85.47-.61.2-1.14.46-1.59.79-.45.33-.81.76-1.09,1.27-.27.51-.41,1.16-.41,1.94s.14,1.37.41,1.88c.28.51.65.91,1.12,1.21.47.29,1.02.5,1.65.62.63.12,1.28.18,1.94.18,1.65,0,2.92-.28,3.83-.82.9-.55,1.57-1.21,2-1.97.43-.76.7-1.54.79-2.33.1-.78.15-1.41.15-1.88v-3.12Z"/>
    <path class="cls-1" d="m398.32,205.69v5.65h.12c.39-.94.92-1.81,1.59-2.62s1.43-1.49,2.3-2.06,1.79-1.01,2.77-1.32c.98-.31,2-.47,3.06-.47.55,0,1.16.1,1.82.29v7.77c-.39-.08-.86-.15-1.41-.2-.55-.06-1.08-.09-1.59-.09-1.53,0-2.83.26-3.89.76-1.06.51-1.91,1.21-2.56,2.09-.65.88-1.11,1.91-1.38,3.09-.28,1.18-.41,2.45-.41,3.83v13.72h-8.36v-30.44h7.95Z"/>
    <path class="cls-1" d="m72.95,275.47v-7.77h34.45v7.77h-12.6v34.27h-9.24v-34.27h-12.6Z"/>
    <path class="cls-1" d="m113.87,279.29v5.65h.12c.39-.94.92-1.81,1.59-2.62s1.43-1.49,2.3-2.06,1.79-1.01,2.77-1.32c.98-.31,2-.47,3.06-.47.55,0,1.16.1,1.82.29v7.77c-.39-.08-.86-.15-1.41-.2-.55-.06-1.08-.09-1.59-.09-1.53,0-2.83.26-3.89.76-1.06.51-1.91,1.21-2.56,2.09-.65.88-1.11,1.91-1.38,3.09-.28,1.18-.41,2.45-.41,3.83v13.72h-8.36v-30.44h7.95Z"/>
    <path class="cls-1" d="m129.07,274.58v-6.89h8.36v6.89h-8.36Zm8.36,4.71v30.44h-8.36v-30.44h8.36Z"/>
    <path class="cls-1" d="m151.06,302.17c.37.65.85,1.18,1.44,1.59.59.41,1.27.72,2.03.91.77.2,1.56.29,2.39.29.59,0,1.21-.07,1.85-.21.65-.14,1.24-.35,1.77-.65s.97-.69,1.32-1.18c.35-.49.53-1.11.53-1.85,0-1.26-.83-2.2-2.5-2.83-1.67-.63-3.99-1.26-6.98-1.88-1.22-.27-2.4-.6-3.56-.97-1.16-.37-2.19-.86-3.09-1.47-.9-.61-1.63-1.37-2.18-2.3-.55-.92-.82-2.05-.82-3.39,0-1.96.38-3.57,1.15-4.83.76-1.26,1.77-2.25,3.03-2.97,1.26-.73,2.67-1.24,4.24-1.53s3.18-.44,4.83-.44,3.25.16,4.8.47,2.94.84,4.15,1.59c1.22.75,2.23,1.74,3.03,2.97.8,1.24,1.28,2.8,1.44,4.68h-7.95c-.12-1.61-.73-2.7-1.83-3.27s-2.39-.85-3.89-.85c-.47,0-.98.03-1.53.09-.55.06-1.05.19-1.5.38-.45.2-.84.48-1.15.85-.31.37-.47.87-.47,1.5,0,.75.27,1.35.82,1.83.55.47,1.27.85,2.15,1.15s1.89.56,3.03.79c1.14.24,2.3.49,3.47.77,1.22.27,2.4.61,3.56,1,1.16.39,2.19.91,3.09,1.56.9.65,1.63,1.45,2.18,2.41s.82,2.15.82,3.56c0,2-.4,3.68-1.21,5.03-.81,1.35-1.85,2.44-3.15,3.27-1.29.82-2.78,1.4-4.45,1.74-1.67.33-3.37.5-5.09.5s-3.49-.18-5.18-.53-3.19-.94-4.5-1.77c-1.32-.82-2.39-1.91-3.24-3.27s-1.31-3.05-1.38-5.09h7.95c0,.9.19,1.68.56,2.33Z"/>
    <path class="cls-1" d="m192.36,279.29v5.59h-6.12v15.07c0,1.41.24,2.35.71,2.83.47.47,1.41.71,2.83.71.47,0,.92-.02,1.35-.06.43-.04.84-.1,1.24-.18v6.48c-.71.12-1.49.2-2.36.23s-1.71.06-2.53.06c-1.29,0-2.52-.09-3.68-.26-1.16-.18-2.18-.52-3.06-1.03-.88-.51-1.58-1.24-2.09-2.18-.51-.94-.77-2.18-.77-3.71v-17.96h-5.06v-5.59h5.06v-9.13h8.36v9.13h6.12Z"/>
    <path class="cls-1" d="m196.01,288.66c.12-1.96.61-3.59,1.47-4.89.86-1.3,1.96-2.34,3.3-3.12,1.33-.79,2.83-1.35,4.5-1.68,1.67-.33,3.35-.5,5.04-.5,1.53,0,3.08.11,4.65.32,1.57.22,3,.64,4.3,1.27,1.3.63,2.36,1.5,3.18,2.62.82,1.12,1.24,2.6,1.24,4.45v15.84c0,1.37.08,2.69.23,3.95s.43,2.2.82,2.83h-8.48c-.16-.47-.29-.95-.38-1.44-.1-.49-.17-.99-.21-1.5-1.33,1.37-2.91,2.34-4.71,2.89s-3.65.82-5.53.82c-1.45,0-2.81-.18-4.06-.53s-2.35-.9-3.3-1.65c-.94-.75-1.68-1.69-2.21-2.83-.53-1.14-.79-2.49-.79-4.06,0-1.73.3-3.15.91-4.27.61-1.12,1.39-2.01,2.35-2.68.96-.67,2.06-1.17,3.3-1.5s2.48-.6,3.74-.79,2.49-.35,3.71-.47c1.22-.12,2.3-.29,3.24-.53.94-.23,1.69-.58,2.24-1.03.55-.45.8-1.11.76-1.97,0-.9-.15-1.62-.44-2.15-.29-.53-.69-.94-1.18-1.24-.49-.29-1.06-.49-1.71-.59-.65-.1-1.35-.15-2.09-.15-1.65,0-2.94.35-3.89,1.06-.94.71-1.49,1.88-1.65,3.53h-8.36Zm19.31,6.18c-.35.31-.79.56-1.32.74s-1.1.32-1.71.44c-.61.12-1.25.22-1.91.29s-1.34.18-2,.29c-.63.12-1.25.28-1.85.47-.61.2-1.14.46-1.59.79-.45.33-.81.76-1.09,1.27-.27.51-.41,1.16-.41,1.94s.14,1.37.41,1.88c.28.51.65.91,1.12,1.21.47.29,1.02.5,1.65.62.63.12,1.28.18,1.94.18,1.65,0,2.92-.28,3.83-.82.9-.55,1.57-1.21,2-1.97.43-.76.7-1.54.79-2.33.1-.78.15-1.41.15-1.88v-3.12Z"/>
    <path class="cls-1" d="m238.11,279.29v4.24h.18c1.06-1.77,2.43-3.05,4.12-3.86,1.69-.8,3.41-1.21,5.18-1.21,2.24,0,4.07.3,5.5.91,1.43.61,2.56,1.45,3.39,2.53.82,1.08,1.4,2.39,1.74,3.95s.5,3.27.5,5.15v18.72h-8.36v-17.19c0-2.51-.39-4.39-1.18-5.62-.79-1.24-2.18-1.85-4.18-1.85-2.28,0-3.93.68-4.95,2.03s-1.53,3.58-1.53,6.68v15.96h-8.36v-30.44h7.95Z"/>
    <path class="cls-1" d="m281.8,279.29v5.59h-6.12v15.07c0,1.41.24,2.35.71,2.83.47.47,1.41.71,2.83.71.47,0,.92-.02,1.35-.06.43-.04.84-.1,1.24-.18v6.48c-.71.12-1.49.2-2.36.23s-1.71.06-2.53.06c-1.29,0-2.52-.09-3.68-.26-1.16-.18-2.18-.52-3.06-1.03-.88-.51-1.58-1.24-2.09-2.18-.51-.94-.77-2.18-.77-3.71v-17.96h-5.06v-5.59h5.06v-9.13h8.36v9.13h6.12Z"/>
    <path class="cls-1" d="m316.07,267.69l9.83,28.91h.12l9.3-28.91h13.01v42.04h-8.66v-29.79h-.12l-10.31,29.79h-7.12l-10.3-29.5h-.12v29.5h-8.66v-42.04h13.01Z"/>
    <path class="cls-1" d="m355.75,287.92c.75-1.98,1.8-3.67,3.18-5.06,1.37-1.39,3.02-2.47,4.95-3.24,1.92-.76,4.08-1.15,6.48-1.15s4.56.38,6.51,1.15c1.94.77,3.6,1.85,4.98,3.24s2.43,3.08,3.18,5.06c.75,1.98,1.12,4.19,1.12,6.62s-.37,4.63-1.12,6.59c-.75,1.96-1.81,3.64-3.18,5.03s-3.03,2.46-4.98,3.21c-1.94.75-4.11,1.12-6.51,1.12s-4.55-.37-6.48-1.12-3.57-1.82-4.95-3.21c-1.38-1.39-2.44-3.07-3.18-5.03-.75-1.96-1.12-4.16-1.12-6.59s.37-4.64,1.12-6.62Zm7.6,10.19c.23,1.16.64,2.2,1.21,3.12s1.33,1.66,2.27,2.21,2.12.82,3.53.82,2.6-.27,3.56-.82c.96-.55,1.73-1.29,2.3-2.21.57-.92.97-1.96,1.21-3.12.23-1.16.35-2.35.35-3.56s-.12-2.41-.35-3.59-.64-2.22-1.21-3.12c-.57-.9-1.34-1.64-2.3-2.21-.96-.57-2.15-.85-3.56-.85s-2.59.29-3.53.85-1.7,1.31-2.27,2.21-.97,1.94-1.21,3.12-.35,2.38-.35,3.59.12,2.4.35,3.56Z"/>
    <path class="cls-1" d="m391.79,274.58v-6.89h8.36v6.89h-8.36Zm8.36,4.71v30.44h-8.36v-30.44h8.36Z"/>
    <path class="cls-1" d="m414.69,279.29v5.65h.12c.39-.94.92-1.81,1.59-2.62s1.43-1.49,2.3-2.06,1.79-1.01,2.77-1.32c.98-.31,2-.47,3.06-.47.55,0,1.16.1,1.82.29v7.77c-.39-.08-.86-.15-1.41-.2-.55-.06-1.08-.09-1.59-.09-1.53,0-2.83.26-3.89.76-1.06.51-1.91,1.21-2.56,2.09-.65.88-1.11,1.91-1.38,3.09-.28,1.18-.41,2.45-.41,3.83v13.72h-8.36v-30.44h7.95Z"/>
  </g>
</svg>